<svg xmlns="http://www.w3.org/2000/svg" width="1200" height="820" viewBox="0 0 1200 820">
  <defs>
    <marker id="arrow" markerWidth="10" markerHeight="10" refX="9" refY="3" orient="auto">
      <path d="M0,0 L10,3 L0,6 Z" fill="#334155"/>
    </marker>
    <style>
      .title { font: bold 26px sans-serif; fill: #0f172a; }
      .label { font: 16px sans-serif; fill: #0f172a; text-anchor: middle; }
      .small { font: 13px sans-serif; fill: #334155; text-anchor: middle; }
      .box { stroke: #334155; stroke-width: 2; rx: 12; }
      .line { stroke: #334155; stroke-width: 2; fill: none; marker-end: url(#arrow); }
    </style>
  </defs>
  <rect width="1200" height="820" fill="#f8fafc"/>
  <text x="600" y="42" class="title" text-anchor="middle">Arquitectura por componentes — FastAPI Layered API</text>

  <rect x="35" y="85" width="170" height="70" class="box" fill="#dbeafe"/>
  <text x="120" y="116" class="label">Cliente HTTP</text><text x="120" y="140" class="small">Swagger / ReDoc</text>
  <rect x="260" y="85" width="170" height="70" class="box" fill="#dbeafe"/>
  <text x="345" y="116" class="label">Uvicorn</text><text x="345" y="140" class="small">Servidor ASGI</text>
  <rect x="485" y="85" width="220" height="70" class="box" fill="#bfdbfe"/>
  <text x="595" y="116" class="label">app.main</text><text x="595" y="140" class="small">FastAPI + middleware + lifespan</text>
  <rect x="760" y="85" width="210" height="70" class="box" fill="#bfdbfe"/>
  <text x="865" y="116" class="label">api.v1.api</text><text x="865" y="140" class="small">Agregador de routers</text>

  <path d="M205 120 H260 M430 120 H485 M705 120 H760" class="line"/>

  <rect x="60" y="230" width="210" height="80" class="box" fill="#dcfce7"/>
  <text x="165" y="265" class="label">auth.py</text><text x="165" y="289" class="small">Registro y login</text>
  <rect x="330" y="230" width="210" height="80" class="box" fill="#dcfce7"/>
  <text x="435" y="265" class="label">users.py</text><text x="435" y="289" class="small">Usuarios protegidos</text>
  <rect x="600" y="230" width="250" height="80" class="box" fill="#dcfce7"/>
  <text x="725" y="265" class="label">notifications.py</text><text x="725" y="289" class="small">Públicas y privadas</text>
  <rect x="910" y="230" width="220" height="80" class="box" fill="#fef3c7"/>
  <text x="1020" y="265" class="label">api.deps</text><text x="1020" y="289" class="small">Depends + autenticación</text>

  <path d="M865 155 V190 H165 V230 M865 190 H435 V230 M865 190 H725 V230 M865 155 V230 H1020" class="line"/>

  <rect x="150" y="390" width="250" height="80" class="box" fill="#ede9fe"/>
  <text x="275" y="425" class="label">UserService</text><text x="275" y="449" class="small">Reglas de usuario y JWT</text>
  <rect x="520" y="390" width="280" height="80" class="box" fill="#ede9fe"/>
  <text x="660" y="425" class="label">NotificationService</text><text x="660" y="449" class="small">Casos de uso de notificación</text>
  <path d="M165 310 V350 H275 V390 M435 310 V350 H275 V390 M725 310 V350 H660 V390 M1020 310 V350 H275 V390 M1020 350 H660 V390" class="line"/>

  <rect x="120" y="550" width="270" height="80" class="box" fill="#fce7f3"/>
  <text x="255" y="585" class="label">UserRepository</text><text x="255" y="609" class="small">Consultas SQL de usuarios</text>
  <rect x="520" y="550" width="300" height="80" class="box" fill="#fce7f3"/>
  <text x="670" y="585" class="label">NotificationRepository</text><text x="670" y="609" class="small">Consultas y filtros de propiedad</text>
  <path d="M275 470 V550 M660 470 V550" class="line"/>

  <rect x="155" y="700" width="230" height="75" class="box" fill="#ffedd5"/>
  <text x="270" y="733" class="label">Modelos ORM</text><text x="270" y="756" class="small">User / Notification</text>
  <rect x="510" y="700" width="280" height="75" class="box" fill="#ffedd5"/>
  <text x="650" y="733" class="label">Base de datos</text><text x="650" y="756" class="small">SQLite async / PostgreSQL</text>
  <path d="M255 630 V700 M670 630 V680 H270 V700 M670 680 H650 V700" class="line"/>

  <rect x="930" y="390" width="210" height="80" class="box" fill="#fee2e2"/>
  <text x="1035" y="425" class="label">core.security</text><text x="1035" y="449" class="small">Argon2 + JWT</text>
  <rect x="930" y="550" width="210" height="80" class="box" fill="#fee2e2"/>
  <text x="1035" y="585" class="label">core.config</text><text x="1035" y="609" class="small">Settings + .env</text>
  <path d="M400 430 H930 M800 430 H930 M1035 470 V550" class="line"/>
</svg>
